<svg class="svg-icon" style="width: 1em; height: 1em;vertical-align: middle;fill: currentColor;overflow: hidden;" viewBox="0 0 1024 1024" version="1.1" xmlns="http://www.w3.org/2000/svg"><path d="M889.98475 855.622128H134.01525c-37.902238 0-68.724221-30.830169-68.724221-68.724221V613.022835c0-16.3422 11.510148-30.42801 27.533076-33.673938 31.828916-6.468318 54.933123-34.790364 54.933124-67.348897s-23.104207-60.872393-54.933124-67.340711c-16.022928-3.255137-27.533077-17.331737-27.533076-33.673937V237.102093c0-37.894052 30.821983-68.724221 68.724221-68.724221h755.9695c37.902238 0 68.724221 30.830169 68.724221 68.724221v173.883259c0 16.3422-11.510148 30.419823-27.516703 33.673937-31.845289 6.468318-54.949496 34.790364-54.949497 67.340711 0 32.558533 23.104207 60.880579 54.949497 67.348897 16.006556 3.255137 27.516704 17.331737 27.516703 33.673938v173.875072c0 37.894052-30.821983 68.724221-68.724221 68.724221z m0-68.724221v34.362622l0.016373-34.362622h-0.016373zM134.01525 637.989459v148.908448h755.869216l0.083911-148.916634c-49.094138-21.50171-82.448804-70.687946-82.448803-125.981273s33.372062-104.479563 82.4662-125.981273V237.102093H134.01525v148.916634c49.094138 21.493523 82.4662 70.687946 82.4662 125.981273 0 55.301514-33.373085 104.495936-82.4662 125.989459z" fill="#444444" /><path d="M381.428176 700.995445h-58.415435V323.010695h58.415435c15.181771 0 27.490098 15.384385 27.490097 34.362622v309.260529c-0.001023 18.977213-12.308327 34.361599-27.490097 34.361599z" fill="#00D8A0" /></svg>