<svg class="svg-icon" style="width: 1em; height: 1em;vertical-align: middle;fill: currentColor;overflow: hidden;" viewBox="0 0 1024 1024" version="1.1" xmlns="http://www.w3.org/2000/svg"><path d="M512 870.4c-10.24 0-17.066667-6.826667-17.066667-17.066667V170.666667c0-10.24 6.826667-17.066667 17.066667-17.066667s17.066667 6.826667 17.066667 17.066667v682.666666c0 10.24-6.826667 17.066667-17.066667 17.066667z" fill="" /><path d="M512 870.4h-6.826667l-341.333333-129.706667c-6.826667-3.413333-10.24-10.24-10.24-17.066666V375.466667c0-10.24 6.826667-17.066667 17.066667-17.066667s17.066667 6.826667 17.066666 17.066667v334.506666l331.093334 126.293334c10.24 3.413333 13.653333 13.653333 10.24 20.48-3.413333 10.24-10.24 13.653333-17.066667 13.653333z" fill="" /><path d="M34.133333 392.533333c-6.826667 0-10.24-3.413333-13.653333-10.24-3.413333-6.826667-3.413333-13.653333 0-20.48l129.706667-163.84c3.413333-3.413333 6.826667-6.826667 10.24-6.826666l348.16-40.96c6.826667 0 13.653333 3.413333 17.066666 10.24 3.413333 6.826667 3.413333 13.653333 0 20.48l-129.706666 163.84c-3.413333 3.413333-6.826667 6.826667-10.24 6.826666L34.133333 392.533333z m139.946667-163.84l-98.986667 126.293334 300.373334-34.133334 98.986666-126.293333-300.373333 34.133333z" fill="" /><path d="M512 870.4c-10.24 0-17.066667-6.826667-17.066667-17.066667V170.666667c0-10.24 6.826667-17.066667 17.066667-17.066667s17.066667 6.826667 17.066667 17.066667v682.666666c0 10.24-6.826667 17.066667-17.066667 17.066667z" fill="" /><path d="M512 870.4c-6.826667 0-13.653333-3.413333-17.066667-10.24-3.413333-10.24 0-17.066667 10.24-20.48l331.093334-116.053333v-334.506667c0-10.24 6.826667-17.066667 17.066666-17.066667s17.066667 6.826667 17.066667 17.066667v348.16c0 6.826667-3.413333 13.653333-10.24 17.066667l-341.333333 122.88c-3.413333-6.826667-3.413333-6.826667-6.826667-6.826667z" fill="" /><path d="M989.866667 402.773333s0-3.413333 0 0l-348.16-44.373333c-3.413333 0-10.24-3.413333-10.24-6.826667l-129.706667-170.666666c-3.413333-6.826667-3.413333-13.653333 0-20.48s10.24-10.24 17.066667-6.826667l348.16 44.373333c3.413333 0 10.24 3.413333 10.24 6.826667l129.706666 170.666667c3.413333 6.826667 3.413333 13.653333 0 20.48-6.826667 3.413333-10.24 6.826667-17.066666 6.826666z m-337.92-78.506666l300.373333 37.546666-102.4-133.12-300.373333-37.546666 102.4 133.12zM375.466667 733.866667c-10.24 0-17.066667-6.826667-17.066667-17.066667v-136.533333c0-10.24 6.826667-17.066667 17.066667-17.066667s17.066667 6.826667 17.066666 17.066667v136.533333c0 10.24-6.826667 17.066667-17.066666 17.066667z" fill="" /><path d="M443.733333 665.6c-3.413333 0-10.24 0-13.653333-3.413333L375.466667 604.16l-54.613334 54.613333c-6.826667 6.826667-17.066667 6.826667-23.893333 0s-6.826667-17.066667 0-23.893333l68.266667-68.266667c6.826667-6.826667 17.066667-6.826667 23.893333 0l68.266667 68.266667c6.826667 6.826667 6.826667 17.066667 0 23.893333-3.413333 6.826667-10.24 6.826667-13.653334 6.826667zM614.4 733.866667c-6.826667 0-13.653333-3.413333-17.066667-13.653334-3.413333-10.24 3.413333-17.066667 10.24-20.48l119.466667-34.133333c10.24-3.413333 17.066667 3.413333 20.48 10.24 3.413333 10.24-3.413333 17.066667-10.24 20.48l-119.466667 34.133333c0 3.413333-3.413333 3.413333-3.413333 3.413334z" fill="" /></svg>