<svg class="svg-icon" style="width: 1em; height: 1em;vertical-align: middle;fill: currentColor;overflow: hidden;" viewBox="0 0 1024 1024" version="1.1" xmlns="http://www.w3.org/2000/svg"><path d="M85.333333 467.626667C64 455.68 57.6 429.653333 69.546667 409.173333L133.546667 298.666667C138.24 290.133333 145.493333 284.16 153.6 280.746667L487.68 93.013333C494.506667 87.893333 503.04 85.333333 512 85.333333 520.96 85.333333 529.493333 87.893333 536.32 93.013333L873.386667 282.453333C881.493333 286.72 888.32 293.546667 892.16 302.08L954.026667 409.6C965.973333 430.08 958.72 456.106667 938.666667 467.626667L896 492.373333 896 704C896 720.213333 887.04 734.293333 873.386667 741.546667L536.32 930.986667C529.493333 936.106667 520.96 938.666667 512 938.666667 503.04 938.666667 494.506667 936.106667 487.68 930.986667L150.613333 741.546667C136.96 734.293333 128 720.213333 128 704L128 467.626667C115.2 474.88 98.986667 475.306667 85.333333 467.626667M512 177.066667 512 177.066667 512 462.933333 512 462.933333 766.293333 320 512 177.066667M213.333333 678.826667 469.333333 823.04 469.333333 536.746667 213.333333 392.96 213.333333 678.826667M810.666667 678.826667 810.666667 541.44 597.333333 665.173333C583.253333 672.853333 567.466667 672.426667 554.666667 665.6L554.666667 823.04 810.666667 678.826667M590.933333 570.026667 858.88 415.146667 834.133333 372.053333 566.186667 526.933333 590.933333 570.026667Z"  /></svg>