<svg class="svg-icon" style="width: 1em; height: 1em;vertical-align: middle;fill: currentColor;overflow: hidden;" viewBox="0 0 1024 1024" version="1.1" xmlns="http://www.w3.org/2000/svg"><path d="M848 443.65625s-31.59375 22.78125-49.21875 30.375c-17.625 7.59375-24.65625-6.09375-24.65625-6.09375l-80.0625-121.59375c-1.3125-6.5625 12.28125-12.1875 12.28125-12.1875s27.84375-22.125 43.125-30.375c15.1875-8.25 24.65625 6.09375 24.65625 6.09375s64.5 101.0625 73.875 115.5c9.375 14.4375 0 18.28125 0 18.28125z m-98.53125 18.1875s2.71875 9.75-6.1875 18.28125c-8.90625 8.4375-45.5625 50.71875-49.21875 54.65625 0 0-6.75 10.6875-18.46875-6.09375s-146.25-132.09375-153.9375-133.78125c-7.59375-1.6875-7.03125-8.34375-24.65625 0-17.625 8.4375-92.34375 42.5625-92.34375 42.5625s-22.40625 4.125-30.75-12.1875c-8.4375-16.21875 1.96875-28.96875 18.46875-36.46875 16.5-7.5 86.15625-42.5625 86.15625-42.5625s30.5625-20.71875 73.875-18.28125c43.3125 2.4375 141.65625 36.46875 141.65625 36.46875l55.40625 97.40625z m-400.21875-42.5625c7.125 27.46875 36.9375 36.46875 36.9375 36.46875l-86.15625 72.9375c0.1875 0-11.15625 7.3125-25.59375-5.0625-13.59375-11.625-36-35.0625-36-43.59375 0-8.53125 95.25-113.53125 86.15625-109.40625 12.1875-5.625 73.3125-7.59375 73.875 0 0.65625 7.59375-54.65625 27.65625-49.21875 48.65625z m-110.8125 42.5625c-13.5 18.84375-24.65625 12.1875-24.65625 12.1875s-26.15625-11.15625-49.21875-30.375-12.28125-30.375-12.28125-30.375 54.75-75.1875 73.875-103.3125 36.9375-18.28125 36.9375-18.28125 38.0625 33.1875 49.21875 42.5625c11.25 9.375 0 24.28125 0 24.28125s-60.375 84.375-73.875 103.3125z m147.75 6.09375s14.34375-12.9375 30.75 6.09375c15.9375 18.375 0 30.375 0 30.375l-73.875 66.84375s-17.625 6-30.75-6.09375c-13.21875-12.09375-6.1875-24.375-6.1875-24.375l80.0625-72.84375z m43.125 42.5625s14.34375-12.9375 30.75 6.09375c15.9375 18.375 0 30.375 0 30.375l-80.0625 72.9375s-17.53125 6-30.75-6.09375c-13.21875-12.09375-6.1875-24.28125-6.1875-24.28125l86.25-79.03125z m24.65625 54.65625s14.34375-12.9375 30.75 6.09375c15.9375 18.375 0 30.375 0 30.375l-61.59375 60.75s-17.53125 6-30.75-6.09375c-13.21875-12.09375-6.1875-24.28125-6.1875-24.28125l67.78125-66.84375z m24.65625 60.84375s14.34375-12.9375 30.75 6.09375c15.9375 18.375 0 30.375 0 30.375l-43.125 42.5625s-17.53125 6-30.75-6.09375c-13.21875-12-6.1875-24.28125-6.1875-24.28125l49.3125-48.65625z m67.6875 85.03125c-2.53125 15.375-30.75 24.28125-30.75 24.28125L484.8125 704.9375l36.9375-42.5625c-0.09375 0.09375 27.09375 33.28125 24.5625 48.65625z m-49.21875-103.3125s1.40625-2.71875 6.1875-12.1875-10.59375-41.0625-24.65625-42.5625c0 0-7.875-2.71875 0-12.1875 0 0-11.90625-39.84375-43.125-42.5625 0 0-13.96875-40.5-30.75-42.5625 0 0 88.875-42.1875 92.34375-42.5625 3.46875-0.375 13.5-8.4375 24.65625 0 0 0 115.59375 83.53125 135.46875 115.5 19.875 31.96875 55.40625 85.125 55.40625 85.125s7.59375 13.96875-18.46875 30.375c-26.0625 16.40625-36.9375-12.1875-36.9375-12.1875l-36.9375-72.9375s-21.46875-3.9375-12.28125 12.1875c9.09375 16.125 49.21875 85.125 49.21875 85.125s8.15625 15.1875-6.1875 24.28125c-14.25 9.09375-23.625 9.65625-36.9375-6.09375s-43.125-72.9375-43.125-72.9375-19.125-10.875-12.28125 6.09375c6.75 16.875 43.125 72.9375 43.125 72.9375s-1.59375 7.78125-18.46875 18.28125-24.65625-6.09375-24.65625-6.09375-42.65625-67.59375-49.21875-72.9375c-6.65625-5.25-12.375-12.09375-12.375-12.09375z m0 0" fill="" /></svg>