<svg class="svg-icon" style="width: 1em; height: 1em;vertical-align: middle;fill: currentColor;overflow: hidden;" viewBox="0 0 1024 1024" version="1.1" xmlns="http://www.w3.org/2000/svg"><path d="M825.7 153.5H638.4c-18.8-52-68.1-89.6-126.4-89.6s-107.5 37.6-126.4 89.6H198.3c-49.3 0-89.6 40.3-89.6 89.6v627.4c0 49.3 40.3 89.6 89.6 89.6h627.4c49.3 0 89.6-40.3 89.6-89.6V243.1c0-49.3-40.3-89.6-89.6-89.6zM462 745.5h-96v-326h96v326z m50-502.4c-24.6 0-44.8-20.2-44.8-44.8 0-24.6 20.2-44.8 44.8-44.8s44.8 20.2 44.8 44.8c0 24.6-20.2 44.8-44.8 44.8z m146 502.4h-96v-326h96v326z" fill="#515151" /></svg>