<svg class="svg-icon" style="width: 1em; height: 1em;vertical-align: middle;fill: currentColor;overflow: hidden;" viewBox="0 0 1024 1024" version="1.1" xmlns="http://www.w3.org/2000/svg"><path d="M751.786667 1017.173333c-1.706667 0-4.266667-0.853333-5.973334-1.706666-1.706667-0.853333-8.533333-5.973333-19.626666-13.653334H82.773333c-5.973333 0-10.24-4.266667-10.24-10.24 0-110.08 79.36-212.48 206.506667-266.24l67.413333-68.266666c1.706667-1.706667 4.266667-3.413333 6.826667-3.413334 2.56 0 5.12 0.853333 6.826667 2.56l11.093333 9.386667v-43.52C324.266667 585.386667 288.426667 523.093333 273.066667 452.266667c-23.893333-1.706667-46.933333-26.453333-58.026667-60.586667-13.653333-41.813333-3.413333-81.066667 23.04-89.6 1.706667-0.853333 2.56-0.853333 4.266667-0.853333-29.013333-140.8 51.2-213.333333 87.893333-238.08 40.106667-27.306667 88.746667-41.813333 137.386667-41.813334 46.933333 0 87.893333 14.506667 116.053333 40.106667 62.293333 10.24 107.52 51.2 128 116.906667 11.093333 38.4 13.653333 86.186667 5.12 128 22.186667 11.946667 29.866667 49.493333 17.066667 87.893333-11.093333 34.133333-34.133333 58.026667-58.026667 60.586667 0 1.706667-0.853333 2.56-0.853333 4.266666 38.4-15.36 67.413333-24.746667 76.8-24.746666 16.213333 0 81.066667 24.746667 133.12 48.64 116.053333 52.906667 116.053333 72.533333 116.053333 80.213333 0 5.973333 8.533333 157.013333-34.133333 266.24-9.386667 24.746667-42.666667 59.733333-97.28 104.96 5.12 19.626667 7.68 39.253333 7.68 58.88 0 5.973333-4.266667 10.24-10.24 10.24H776.533333c-11.093333 7.68-17.92 11.946667-19.626666 13.653333h-5.12z m0-563.2c-8.533333 0-60.586667 17.92-122.026667 45.226667-84.48 38.4-104.96 58.88-105.813333 63.146667 0 5.973333-6.826667 155.306667 32.426666 258.56 19.626667 52.053333 163.84 151.893333 195.413334 173.226666 31.573333-21.333333 175.786667-122.026667 195.413333-173.226666 40.106667-104.106667 32.426667-256.853333 32.426667-258.56-0.853333-4.266667-21.333333-24.746667-105.813334-63.146667-61.44-27.306667-113.493333-45.226667-122.026666-45.226667z m103.253333 528.213334c-0.853333-11.093333-1.706667-23.04-4.266667-34.133334-14.506667 11.093333-29.866667 23.04-45.226666 34.133334h49.493333z m-157.013333 0c-47.786667-34.133333-109.226667-82.773333-141.653334-122.88-1.706667 0.853333-2.56 0.853333-4.266666 0.853333-2.56 0-5.12-0.853333-6.826667-2.56l-19.626667-18.773333-22.186666 22.186666 22.186666 121.173334h172.373334z m-193.706667 0l-20.48-112.64h-17.066667l-20.48 112.64h58.026667z m-78.506667 0l21.333334-119.466667-23.893334-23.893333-19.626666 18.773333c-1.706667 1.706667-4.266667 2.56-6.826667 2.56-2.56 0-5.12-0.853333-6.826667-3.413333L279.893333 747.52c-112.64 50.346667-181.76 137.386667-186.026666 234.666667h331.946666zM486.4 849.066667l23.893333-23.893334-35.84-34.133333-35.84 34.133333 23.893334 23.893334H486.4zM396.8 836.266667l18.773333-17.92s0-0.853333 0.853334-0.853334l43.52-43.52-105.813334-93.866666-57.173333 57.173333L396.8 836.266667z m135.68-19.626667c-6.826667-19.626667-12.8-42.666667-17.066667-67.413333l-26.453333 23.893333 43.52 43.52z m-58.026667-58.026667l36.693334-32.426666c-3.413333-21.333333-5.12-43.52-6.826667-67.413334-10.24 1.706667-20.48 2.56-29.866667 2.56-29.013333 0-56.32-7.68-82.773333-23.04v46.933334l82.773333 73.386666zM334.506667 251.733333c-11.946667 0-15.36 5.973333-28.16 52.906667v0.853333c-2.56 9.386667-5.973333 19.626667-9.386667 30.72-2.56 6.826667-4.266667 14.506667-6.826667 23.04-1.706667 5.12-3.413333 9.386667-5.12 15.36 0 17.92 1.706667 37.546667 4.266667 55.466667 0.853333 5.973333 1.706667 12.8 3.413333 18.773333 14.506667 68.266667 47.786667 127.146667 93.013334 160.426667 8.533333 6.826667 17.92 11.946667 27.306666 17.066667 19.626667 9.386667 40.96 14.506667 61.44 14.506666 9.386667 0 19.626667-0.853333 29.013334-3.413333-1.706667-43.52 0-74.24 0-75.946667 0-7.68 0-27.306667 116.053333-80.213333 10.24-5.12 21.333333-9.386667 32.426667-14.506667 1.706667-6.826667 3.413333-13.653333 5.12-19.626666 0.853333-5.973333 2.56-11.946667 3.413333-18.773334 2.56-18.773333 4.266667-38.4 4.266667-57.173333-0.853333-6.826667-0.853333-13.653333-1.706667-19.626667-0.853333-9.386667-2.56-17.066667-4.266667-24.746666-5.973333-28.16-16.213333-50.346667-41.813333-85.333334-11.093333-15.36-21.333333-23.893333-31.573333-24.746666h-3.413334c-16.213333 0-34.986667 14.506667-56.32 31.573333-5.12 3.413333-9.386667 7.68-14.506666 11.093333-18.773333 13.653333-38.4 20.48-61.44 20.48-27.306667 0-52.906667-9.386667-73.386667-17.066666-13.653333-5.12-26.453333-10.24-35.84-11.093334h-5.973333z m-87.893334 70.826667c-0.853333 0-1.706667 0-2.56 0.853333-5.973333 1.706667-11.093333 10.24-13.653333 21.333334-2.56 12.8-0.853333 28.16 4.266667 42.666666 8.533333 24.746667 23.04 40.106667 34.133333 44.373334-2.56-18.773333-4.266667-38.4-4.266667-58.026667-7.68-16.213333-12.8-34.133333-17.92-51.2z m437.76 53.76c0 18.773333-1.706667 37.546667-4.266666 55.466667 11.946667-4.266667 26.453333-19.626667 34.133333-44.373334 8.533333-26.453333 5.12-49.493333-3.413333-59.733333-6.826667 21.333333-15.36 37.546667-26.453334 48.64zM581.12 196.266667c2.56 0 4.266667 0 6.826667 0.853333 16.213333 2.56 30.72 13.653333 45.226666 33.28 5.12 6.826667 9.386667 13.653333 13.653334 19.626667 14.506667 23.04 23.04 41.813333 29.013333 62.293333 1.706667 5.973333 3.413333 12.8 4.266667 19.626667 0.853333 4.266667 1.706667 8.533333 1.706666 12.8 3.413333-6.826667 6.826667-14.506667 9.386667-23.04 1.706667-5.973333 3.413333-11.946667 5.12-18.773334 8.533333-39.253333 6.826667-82.773333-4.266667-120.32-12.8-40.96-42.666667-92.16-114.346666-102.4-1.706667 0-4.266667-1.706667-5.973334-2.56-23.893333-23.04-60.586667-35.84-104.106666-35.84-44.373333 0-89.6 13.653333-126.293334 38.4-33.28 23.04-108.373333 90.453333-77.653333 226.133334 1.706667 7.68 3.413333 15.36 5.973333 23.04l0.853334 1.706666c0.853333 3.413333 1.706667 6.826667 3.413333 10.24l0.853333-2.56c1.706667-6.826667 4.266667-13.653333 5.973334-19.626666 2.56-7.68 4.266667-14.506667 5.973333-20.48 5.12-17.066667 8.533333-29.866667 12.8-40.106667 8.533333-19.626667 17.92-27.306667 35.84-27.306667h6.826667c11.946667 0.853333 26.453333 5.973333 40.96 11.946667 21.333333 7.68 43.52 16.213333 65.706666 16.213333 17.92 0 34.986667-5.12 49.493334-17.066666 5.12-3.413333 9.386667-6.826667 13.653333-10.24 25.6-18.773333 46.933333-35.84 69.12-35.84z m86.186667 555.52c-0.853333 0-1.706667-0.853333-1.706667-1.706667s0.853333-1.706667 1.706667-1.706667 1.706667 0.853333 1.706666 1.706667c0 1.706667-0.853333 1.706667-1.706666 1.706667z"  /><path d="M743.253333 814.08c-2.56 0-5.12-0.853333-6.826666-2.56L630.613333 716.8c-1.706667-1.706667-3.413333-4.266667-3.413333-6.826667 0-2.56 0.853333-5.12 2.56-7.68l34.133333-38.4c1.706667-1.706667 4.266667-3.413333 6.826667-3.413333 3.413333 0 5.12 0.853333 7.68 2.56l60.586667 54.613333 101.546666-104.96c1.706667-1.706667 4.266667-3.413333 7.68-3.413333 2.56 0 5.12 0.853333 6.826667 2.56l36.693333 35.84c4.266667 4.266667 4.266667 10.24 0 14.506667L750.08 811.52c-1.706667 1.706667-4.266667 2.56-6.826667 2.56z m-0.853333-23.893333L871.253333 657.066667l-22.186666-21.333334-101.546667 104.106667c-1.706667 1.706667-4.266667 3.413333-7.68 3.413333-2.56 0-5.12-0.853333-6.826667-2.56l-60.586666-54.613333-20.48 22.186667L742.4 790.186667z"  /><path d="M751.786667 955.733333c-1.706667 0-4.266667-0.853333-5.973334-1.706666-72.533333-50.346667-150.186667-116.053333-161.28-143.36-30.72-78.506667-31.573333-186.88-30.72-230.4 0-3.413333 1.706667-5.973333 4.266667-8.533334 36.693333-26.453333 154.453333-76.8 191.146667-86.186666h5.12c36.693333 9.386667 154.453333 59.733333 191.146666 86.186666 2.56 1.706667 4.266667 5.12 4.266667 8.533334 0.853333 42.666667-0.853333 151.893333-30.72 230.4-10.24 27.306667-88.746667 92.16-161.28 143.36-1.706667 0.853333-4.266667 1.706667-5.973333 1.706666zM574.293333 586.24c-0.853333 41.813333 1.706667 144.213333 29.866667 216.746667 5.973333 16.213333 64.853333 70.826667 147.626667 129.706666 82.773333-58.88 141.653333-113.493333 147.626666-129.706666 28.16-73.386667 29.866667-175.786667 29.866667-216.746667-37.546667-24.746667-142.506667-69.973333-177.493333-79.36-34.986667 9.386667-139.946667 54.613333-177.493334 79.36z"  /></svg>