<svg xmlns="http://www.w3.org/2000/svg" viewBox="0 0 24 24" fill="#E60023">
  <path d="M12.04 0C5.41 0 0 5.41 0 12.04c0 4.86 2.9 9.05 7.06 10.94-.1-.93-.19-2.36.04-3.38.21-.93 1.38-5.94 1.38-5.94s-.35-.7-.35-1.73c0-1.62.94-2.83 2.11-2.83 1 0 1.48.75 1.48 1.65 0 1-.64 2.5-.97 3.88-.28 1.16.58 2.1 1.72 2.1 2.06 0 3.64-2.17 3.64-5.3 0-2.77-1.99-4.71-4.84-4.71-3.29 0-5.22 2.47-5.22 5.03 0 1 .39 2.07.88 2.65a.35.35 0 0 1 .08.34c-.09.37-.29 1.17-.33 1.33-.05.22-.18.27-.41.16-1.54-.72-2.51-2.98-2.51-4.79 0-3.9 2.84-7.48 8.2-7.48 4.31 0 7.66 3.07 7.66 7.18 0 4.28-2.7 7.73-6.45 7.73-1.26 0-2.44-.65-2.84-1.43l-.77 2.93c-.28 1.07-1.03 2.4-1.54 3.21 1.16.36 2.39.55 3.67.55 6.63 0 12.04-5.41 12.04-12.04S18.67 0 12.04 0z"/>
</svg>
